<svg xmlns="http://www.w3.org/2000/svg" viewBox="0 0 1280 920" width="1280" height="920" role="img" aria-label="Nadia Burke author website — 11-book backlist">
<defs>
<clipPath id="clip-romance-series"><rect x="0" y="0" width="1280" height="920" rx="18"/></clipPath>
<linearGradient id="glow-romance-series" x1="0" y1="0" x2="0" y2="1"><stop offset="0" stop-color="#C2566B" stop-opacity=".18"/><stop offset="1" stop-color="#C2566B" stop-opacity="0"/></linearGradient>
</defs>
<g clip-path="url(#clip-romance-series)">
<rect width="1280" height="920" fill="#FFF6F3"/>

  <path d="M0 18a18 18 0 0 1 18-18h1244a18 18 0 0 1 18 18v32H0Z" fill="#F0E3E0"/>
  <circle cx="26" cy="25" r="5.5" fill="#CFC5B4"/>
  <circle cx="46" cy="25" r="5.5" fill="#CFC5B4"/>
  <circle cx="66" cy="25" r="5.5" fill="#CFC5B4"/>
  <rect x="430" y="13" width="420" height="24" rx="12" fill="#FBF7F0"/>
  <text x="640" y="29" font-family="Inter,system-ui,sans-serif" font-size="12"
        fill="#9E9484" text-anchor="middle">nadiaburkeauthor.com</text>

<rect x="0" y="50" width="1280" height="870" fill="#FFF6F3"/>
<rect x="0" y="50" width="1280" height="360" fill="url(#glow-romance-series)"/>
<text x="64" y="102" font-family="Lora,Georgia,serif" font-size="26" font-weight="600" fill="#4A2630" letter-spacing=".5">Nadia Burke</text>
<text x="768" y="96" font-family="Inter,system-ui,sans-serif" font-size="14" fill="#7A5A60">The Series</text>
<text x="882" y="96" font-family="Inter,system-ui,sans-serif" font-size="14" fill="#7A5A60">Reading Order</text>
<text x="1020" y="96" font-family="Inter,system-ui,sans-serif" font-size="14" fill="#7A5A60">Extras</text>
<text x="1102" y="96" font-family="Inter,system-ui,sans-serif" font-size="14" fill="#7A5A60">Newsletter</text>
<rect x="64" y="132" width="1152" height="1" fill="#4A2630" opacity=".12"/>
<text x="64" y="174" font-family="Inter,system-ui,sans-serif" font-size="12" font-weight="700" letter-spacing="3" fill="#C2566B">11-BOOK BACKLIST</text>
<text x="64" y="220" font-family="Lora,Georgia,serif" font-size="54" font-weight="600" fill="#4A2630">Eleven books.</text>
<text x="64" y="282" font-family="Lora,Georgia,serif" font-size="54" font-weight="600" fill="#4A2630">One harbour town.</text>
<text x="64" y="356" font-family="Inter,system-ui,sans-serif" font-size="17" fill="#7A5A60">Start with Harbour Lights — then work your way</text>
<text x="64" y="384" font-family="Inter,system-ui,sans-serif" font-size="17" fill="#7A5A60">down the coast with the Blackwater Bay series.</text>
<rect x="64" y="438" width="193" height="52" rx="10" fill="#C2566B"/>
<text x="160" y="470" font-family="Inter,system-ui,sans-serif" font-size="16" font-weight="600" fill="#FFF6F3" text-anchor="middle">Start book one</text>
<rect x="271" y="438" width="150" height="52" rx="10" fill="none" stroke="#4A2630" stroke-opacity=".22"/>
<text x="346" y="470" font-family="Inter,system-ui,sans-serif" font-size="16" fill="#7A5A60" text-anchor="middle">All retailers</text>
<rect x="912" y="168" width="300" height="450" rx="6" fill="#4A2630" opacity=".16"/>
<rect x="896" y="146" width="300" height="450" rx="3" fill="#C2566B"/><rect x="896" y="146" width="16.5" height="450" fill="#F3D9DD" opacity=".85"/><rect x="944.0" y="416.0" width="150.0" height="2" fill="#F3D9DD"/><text x="944.0" y="263.0" font-family="Lora,Georgia,serif" font-size="30.0" font-weight="600" fill="#FFF4F1">Harbour</text><text x="944.0" y="298.4" font-family="Lora,Georgia,serif" font-size="30.0" font-weight="600" fill="#FFF4F1">Lights</text><text x="944.0" y="488.0" font-family="Inter,system-ui,sans-serif" font-size="15.6" letter-spacing="1.2" fill="#FFF4F1" opacity=".7">NADIA BURKE</text>
<rect x="0" y="656" width="1280" height="264" fill="#F3D9DD" opacity=".55"/>
<text x="64" y="694" font-family="Lora,Georgia,serif" font-size="22" font-weight="600" fill="#4A2630">More books</text>
<text x="1216" y="694" font-family="Inter,system-ui,sans-serif" font-size="14" fill="#C2566B" text-anchor="end">See all books →</text>
<rect x="64" y="718" width="118" height="172" rx="3" fill="#8E3B52"/><rect x="64" y="718" width="6.5" height="172" fill="#C2566B" opacity=".85"/><rect x="82.9" y="821.2" width="59.0" height="2" fill="#C2566B"/><text x="82.9" y="762.7" font-family="Lora,Georgia,serif" font-size="14.8" font-weight="600" fill="#FFF4F1">Tidewater</text><text x="82.9" y="848.7" font-family="Inter,system-ui,sans-serif" font-size="7.7" letter-spacing="1.2" fill="#FFF4F1" opacity=".7">BURKE</text>
<rect x="210" y="718" width="118" height="172" rx="3" fill="#E08A8A"/><rect x="210" y="718" width="6.5" height="172" fill="#C2566B" opacity=".85"/><rect x="228.9" y="821.2" width="59.0" height="2" fill="#C2566B"/><text x="228.9" y="762.7" font-family="Lora,Georgia,serif" font-size="14.8" font-weight="600" fill="#4A2630">Saltlines</text><text x="228.9" y="848.7" font-family="Inter,system-ui,sans-serif" font-size="7.7" letter-spacing="1.2" fill="#4A2630" opacity=".7">BURKE</text>
<rect x="356" y="718" width="118" height="172" rx="3" fill="#F3D9DD"/><rect x="356" y="718" width="6.5" height="172" fill="#C2566B" opacity=".85"/><rect x="374.9" y="821.2" width="59.0" height="2" fill="#C2566B"/><text x="374.9" y="762.7" font-family="Lora,Georgia,serif" font-size="14.8" font-weight="600" fill="#4A2630">Low Season</text><text x="374.9" y="848.7" font-family="Inter,system-ui,sans-serif" font-size="7.7" letter-spacing="1.2" fill="#4A2630" opacity=".7">BURKE</text>
<rect x="542" y="718" width="674" height="172" rx="12" fill="#FFF6F3" stroke="#4A2630" stroke-opacity=".10"/>
<text x="566" y="756" font-family="Lora,Georgia,serif" font-size="19" font-weight="600" fill="#4A2630">Get the free first chapter</text>
<text x="566" y="782" font-family="Inter,system-ui,sans-serif" font-size="13" fill="#7A5A60">One email when there is a new book. Nothing else.</text>
<rect x="566" y="802" width="524" height="42" rx="8" fill="#F3D9DD" opacity=".7"/>
<text x="582" y="829" font-family="Inter,system-ui,sans-serif" font-size="13" fill="#7A5A60" opacity=".8">you@email.com</text>
<rect x="1098" y="802" width="94" height="42" rx="8" fill="#C2566B"/>
<text x="1145" y="829" font-family="Inter,system-ui,sans-serif" font-size="13" font-weight="600" fill="#FFF6F3" text-anchor="middle">Send it</text>
</g>
<rect x=".5" y=".5" width="1279" height="919" rx="18" fill="none" stroke="#4A2630" stroke-opacity=".12"/>
</svg>
